PathFileType  4	(X/Y/Z) C:\Users\wagnerel85475\Documents\Thesis\opencap-core\Data\3375ffbc-daeb-4a43-b4f7-ac9899cd4c71\MarkerData\PreAugmentation
DataRate	CameraRate	NumFrames	NumMarkers	Units	OrigDataRate	OrigDataStartFrame	OrigNumFrames
60.0	60.0	9	20	m	60.0	103	822
Frame#	Time	Neck			RShoulder			RElbow			RWrist			LShoulder			LElbow			LWrist			midHip			RHip			RKnee			RAnkle			LHip			LKnee			LAnkle			LBigToe			LSmallToe			LHeel			RBigToe			RSmallToe			RHeel			
		X1	Y1	Z1	X2	Y2	Z2	X3	Y3	Z3	X4	Y4	Z4	X5	Y5	Z5	X6	Y6	Z6	X7	Y7	Z7	X8	Y8	Z8	X9	Y9	Z9	X10	Y10	Z10	X11	Y11	Z11	X12	Y12	Z12	X13	Y13	Z13	X14	Y14	Z14	X15	Y15	Z15	X16	Y16	Z16	X17	Y17	Z17	X18	Y18	Z18	X19	Y19	Z19	X20	Y20	Z20	

103	1.7000000	0.5890000	1.3498200	-0.0687400	0.5993000	1.3554700	0.1174200	0.5581100	1.0438200	0.1947700	0.6502300	0.7563400	0.2341200	0.5918100	1.3459600	-0.2538900	0.5658700	1.0392900	-0.3231100	0.6301300	0.7556800	-0.3535500	0.6214600	0.8000700	-0.0579200	0.6284300	0.8065800	0.0672300	0.5748200	0.3238600	0.0689100	0.5108900	-0.1931600	0.1160900	0.6176100	0.7979800	-0.1764300	0.5453000	0.3032900	-0.1850900	0.5354100	-0.1941700	-0.2449100	0.7586000	-0.2334500	-0.2961000	0.7185600	-0.2390100	-0.3232600	0.4853100	-0.2435400	-0.2359300	0.7027300	-0.2439000	0.2031800	0.6692900	-0.2398100	0.2212600	0.4962600	-0.2312500	0.0993300
104	1.7166667	0.5888700	1.3495600	-0.0687800	0.5988700	1.3538100	0.1172300	0.5577500	1.0395700	0.1948700	0.6437600	0.7527800	0.2324400	0.5916700	1.3480300	-0.2541500	0.5657000	1.0387100	-0.3231200	0.6133200	0.7423700	-0.3562500	0.6211600	0.7999300	-0.0575600	0.6284900	0.8047100	0.0673300	0.5741600	0.3258300	0.0696100	0.5104000	-0.1953000	0.1165100	0.6176800	0.7958500	-0.1767800	0.5510000	0.3064700	-0.1827600	0.5355500	-0.1958900	-0.2444800	0.7586100	-0.2352800	-0.2963400	0.7192600	-0.2388600	-0.3233500	0.4847500	-0.2435400	-0.2360100	0.7072500	-0.2424000	0.2004100	0.6691600	-0.2373400	0.2214500	0.4957500	-0.2327100	0.0999600
105	1.7333333	0.5889700	1.3498000	-0.0687600	0.5982400	1.3554900	0.1129200	0.5581600	1.0394600	0.1947500	0.6444600	0.7532100	0.2322500	0.5861500	1.3483000	-0.2562400	0.5712200	1.0377600	-0.3206900	0.5978800	0.7494600	-0.3585900	0.6213400	0.8024700	-0.0575900	0.6280600	0.8070500	0.0674800	0.5745700	0.3261300	0.0691500	0.5106300	-0.1968200	0.1168100	0.6176200	0.7958800	-0.1763100	0.5508700	0.3045500	-0.1829100	0.5354000	-0.1941900	-0.2449100	0.7585600	-0.2334100	-0.2961100	0.7185900	-0.2390500	-0.3232700	0.4853000	-0.2435400	-0.2359300	0.7074100	-0.2422000	0.2005500	0.6691900	-0.2396900	0.2212600	0.4961400	-0.2350100	0.1003200
106	1.7500000	0.5888500	1.3495300	-0.0688300	0.6038600	1.3554500	0.1146100	0.5576900	1.0395300	0.1948500	0.6434200	0.7508800	0.2324900	0.5864200	1.3459300	-0.2564300	0.5544500	1.0403100	-0.3185200	0.5913100	0.7506100	-0.3611300	0.6154500	0.8013100	-0.0597600	0.6282900	0.8070500	0.0674200	0.5743600	0.3235100	0.0694000	0.5103100	-0.1988200	0.1172200	0.6121700	0.7951800	-0.1790000	0.5457000	0.3004200	-0.1854000	0.5355700	-0.1958900	-0.2444800	0.7587900	-0.2332200	-0.2960000	0.7192700	-0.2388900	-0.3233400	0.4908000	-0.2416500	-0.2331300	0.6978800	-0.2461200	0.2057300	0.6646400	-0.2410600	0.2237800	0.4972100	-0.2409500	0.1019400
107	1.7666667	0.5889500	1.3498000	-0.0687900	0.5984300	1.3529700	0.1129200	0.5523800	1.0365000	0.1928800	0.6428600	0.7535700	0.2281400	0.5861200	1.3483400	-0.2562700	0.5545100	1.0412400	-0.3184700	0.5870400	0.7375200	-0.3588300	0.6157100	0.8016200	-0.0599200	0.6281600	0.8089400	0.0673400	0.5748200	0.3238200	0.0689300	0.5105900	-0.1985500	0.1171900	0.6174100	0.7978900	-0.1810600	0.5454600	0.3009100	-0.1853200	0.5353400	-0.1962300	-0.2445400	0.7535400	-0.2373000	-0.2986200	0.7137100	-0.2408000	-0.3254600	0.4856000	-0.2456900	-0.2355800	0.6886800	-0.2497000	0.2111500	0.6640600	-0.2433700	0.2243500	0.5002900	-0.2451500	0.1024700
108	1.7833333	0.5888500	1.3495100	-0.0688500	0.6039200	1.3512200	0.1146400	0.5516600	1.0348200	0.1930900	0.6373900	0.7500800	0.2307700	0.5864600	1.3459400	-0.2564600	0.5484500	1.0442000	-0.3163200	0.5806300	0.7364000	-0.3612600	0.6155100	0.8033700	-0.0599000	0.6284300	0.8090000	0.0672900	0.5744000	0.3234900	0.0694000	0.5103000	-0.1988200	0.1172200	0.6173900	0.7978000	-0.1815000	0.5455900	0.3028600	-0.1851500	0.5355600	-0.1959100	-0.2445000	0.7587700	-0.2332600	-0.2960100	0.7143700	-0.2405800	-0.3255300	0.4850100	-0.2456300	-0.2356700	0.6980000	-0.2463900	0.2056800	0.6644100	-0.2431800	0.2241400	0.4907000	-0.2416900	0.0998900
109	1.8000000	0.5889700	1.3497800	-0.0688100	0.5984300	1.3530000	0.1129300	0.5520800	1.0347700	0.1929400	0.6429800	0.7513000	0.2279800	0.5863200	1.3461400	-0.2562500	0.5377100	1.0396100	-0.3163500	0.5705700	0.7352300	-0.3569400	0.6157300	0.8036800	-0.0600100	0.6229400	0.8107000	0.0700800	0.5745900	0.3199100	0.0693900	0.5105700	-0.1968200	0.1168100	0.6121300	0.7972900	-0.1786700	0.5510700	0.3039700	-0.1879800	0.5353600	-0.1982800	-0.2441700	0.7535300	-0.2373000	-0.2986200	0.7134500	-0.2389700	-0.3258200	0.4855500	-0.2457000	-0.2355700	0.7030100	-0.2445600	0.2031500	0.6645800	-0.2417800	0.2239200	0.4846300	-0.2376800	0.1008600
110	1.8166667	0.5888300	1.3495000	-0.0688600	0.6039200	1.3513000	0.1146600	0.5516100	1.0348600	0.1930500	0.6359900	0.7522600	0.2265100	0.5864100	1.3459500	-0.2564600	0.5373900	1.0387300	-0.3164200	0.5697700	0.7343800	-0.3573100	0.6153300	0.8055700	-0.0597600	0.6175100	0.8078000	0.0679900	0.5742800	0.3258700	0.0696000	0.5103600	-0.1953700	0.1165000	0.6121300	0.7971800	-0.1791000	0.5513700	0.3036100	-0.1880600	0.5355900	-0.1979100	-0.2441300	0.7539400	-0.2349500	-0.2981800	0.7140900	-0.2387400	-0.3259100	0.4850500	-0.2456700	-0.2356500	0.7121600	-0.2409900	0.1977500	0.6648900	-0.2415500	0.2237100	0.4842100	-0.2366800	0.1008500
111	1.8333333	0.5889700	1.3497700	-0.0688300	0.5984500	1.3529600	0.1129100	0.5520800	1.0347500	0.1929400	0.6369100	0.7528900	0.2263600	0.5860400	1.3483700	-0.2563200	0.5376800	1.0395400	-0.3163800	0.5710500	0.7368200	-0.3573400	0.6160300	0.7993000	-0.0602600	0.6176400	0.8030400	0.0677700	0.5744100	0.3241600	0.0693000	0.5107000	-0.1950500	0.1164600	0.6120600	0.7972500	-0.1786900	0.5507600	0.3064000	-0.1877700	0.5355400	-0.1983700	-0.2448900	0.7679500	-0.2361300	-0.2928100	0.7182900	-0.2415400	-0.3242700	0.4796900	-0.2518900	-0.2385100	0.7066600	-0.2429600	0.1962200	0.6581500	-0.2436000	0.2230500	0.4847700	-0.2364500	0.1005300
